<svg xmlns="http://www.w3.org/2000/svg" viewBox="48 82.1 32 32">
  <path fill="#ffffff" d="M64.21 82.25c-0.427 0-0.8528 0.1007-1.215 0.3047l-11.55 6.73a2.457 2.457 0 0 0-1.215 2.125v13.42c0 0.874 0.4628 1.689 1.215 2.127l3.041 1.746c1.475 0.728 1.995 0.7227 2.66 0.7227 2.17 0 3.416-1.337 3.416-3.637v-13.24a0.356 0.356 0 0 0-0.3457-0.3516h-1.475a0.356 0.356 0 0 0-0.3516 0.3516v13.25c0 1.019-1.066 2.039-2.773 1.166l-3.156-1.834c-0.116-0.058-0.1738-0.2063-0.1738-0.3223v-13.43c0-0.116 0.05783-0.2633 0.1738-0.3203l11.54-6.695c0.087-0.058 0.2316-0.058 0.3496 0l11.54 6.695c0.115 0.06 0.1758 0.1763 0.1758 0.3203v13.42c0 0.145-0.05978 0.2643-0.1758 0.3223l-11.55 6.727c-0.087 0.058-0.2316 0.058-0.3496 0l-2.949-1.777c-0.088-0.058-0.205-0.0853-0.291-0.0293-0.81 0.468-0.9524 0.5271-1.734 0.7891-0.174 0.058-0.4628 0.1722 0.1152 0.4922l3.852 2.303c0.376 0.203 0.7798 0.3184 1.215 0.3184 0.434 0 0.8659-0.1148 1.213-0.2598l11.55-6.727a2.463 2.463 0 0 0 1.215-2.129v-13.42c0-0.874-0.4628-1.686-1.215-2.123l-11.55-6.73a2.488 2.488 0 0 0-1.213-0.3047zM66.93 91.38c-3.3 0-5.271 1.399-5.271 3.758 0 2.534 1.968 3.229 5.123 3.549 3.79 0.38 4.08 0.9344 4.08 1.691 0 1.31-1.042 1.861-3.473 1.861-3.068 0-3.735-0.7568-3.967-2.299 0-0.176-0.1405-0.291-0.3145-0.291h-1.504a0.35 0.35 0 0 0-0.3516 0.3516c0 1.98 1.045 4.307 6.111 4.307 3.645 0 5.754-1.456 5.754-4.02 0-2.503-1.68-3.175-5.238-3.641-3.59-0.466-3.965-0.7283-3.965-1.572 0-0.699 0.3205-1.629 2.98-1.629 2.375 0 3.273 0.524 3.621 2.125a0.34 0.34 0 0 0 0.3145 0.2637h1.535c0.087 0 0.1773-0.05723 0.2363-0.1152a0.476 0.476 0 0 0 0.08594-0.2637c-0.231-2.795-2.053-4.076-5.758-4.076z"/>
</svg>